<svg width="97" height="40" viewBox="0 0 97 40" fill="none" xmlns="http://www.w3.org/2000/svg">
<path d="M80.1303 12.0195C81.747 12.0195 82.8517 13.6526 82.2504 15.1533L74.4535 34.6133C73.7618 36.3331 72.9241 37.5635 71.8686 38.3623C70.811 39.1625 69.5473 39.5205 68.0229 39.5205C67.3983 39.5205 66.8091 39.4848 66.2514 39.417C65.2094 39.2903 64.5132 38.3571 64.5131 37.3291C64.5131 36.0775 65.5281 35.0625 66.7797 35.0625H67.3549C68.2384 35.0625 68.9313 34.9605 69.4975 34.6094C70.0611 34.2598 70.5198 33.6502 70.9037 32.5898L70.9047 32.5879L71.4057 31.2627L65.2016 15.2061C64.6086 13.6714 65.741 12.0198 67.3861 12.0195C68.3793 12.0195 69.2646 12.6455 69.5951 13.582L73.6654 25.1211L77.9897 13.5068C78.3225 12.6125 79.176 12.0195 80.1303 12.0195ZM40.7182 12.0195C42.0414 12.0195 43.1146 13.0918 43.1147 14.415V28.2432C43.1147 29.5527 42.053 30.615 40.7436 30.6152C39.5579 30.6152 38.5544 29.7392 38.394 28.5645L38.3695 28.3887C37.162 30.0194 34.8693 31.0976 32.518 31.0977C30.3715 31.0977 28.6543 30.3712 27.475 29.0635C26.2974 27.7576 25.6694 25.8865 25.6693 23.6182V14.415C25.6694 13.0919 26.7417 12.0196 28.0648 12.0195C29.3881 12.0195 30.4612 13.0918 30.4613 14.415V22.0225C30.4614 23.7529 30.8023 24.9404 31.432 25.6943C32.0575 26.4431 32.9882 26.7881 34.225 26.7881C35.6269 26.788 36.6411 26.3792 37.309 25.5654C37.9813 24.7462 38.3226 23.493 38.3227 21.7627V14.415C38.3228 13.0919 39.395 12.0197 40.7182 12.0195ZM19.4125 3.22461C20.7971 3.2248 21.9193 4.34776 21.9193 5.73242V28.1074C21.9193 29.4921 20.7971 30.615 19.4125 30.6152C18.0277 30.6152 16.9047 29.4922 16.9047 28.1074V19.1123H5.14688V28.1074C5.14688 29.4921 4.02475 30.6151 2.64005 30.6152C1.25527 30.6152 0.132233 29.4922 0.132233 28.1074V5.73242C0.132233 4.34765 1.25527 3.22461 2.64005 3.22461C4.02475 3.2247 5.14688 4.3477 5.14688 5.73242V14.4307H16.9047V5.73242C16.9047 4.34765 18.0277 3.22461 19.4125 3.22461ZM59.0356 2.74219C60.3486 2.74219 61.4135 3.80707 61.4135 5.12012V28.2373C61.4135 29.5504 60.3486 30.6152 59.0356 30.6152C57.7226 30.6151 56.6586 29.5503 56.6586 28.2373V16.0693H52.9106V28.2188C52.9106 29.542 51.8383 30.6152 50.515 30.6152C49.1918 30.6152 48.1186 29.542 48.1186 28.2188V16.0693H46.6186C45.5003 16.0693 44.5941 15.1623 44.5941 14.0439C44.5943 12.9257 45.5003 12.0196 46.6186 12.0195H48.1186V8.70117C48.1186 7.37788 49.1918 6.30469 50.515 6.30469C51.8383 6.30476 52.9106 7.37792 52.9106 8.70117V12.0195H56.6586V5.12012C56.6586 3.80712 57.7226 2.74228 59.0356 2.74219Z" fill="white" stroke="white" stroke-width="0.265049"/>
<path d="M89.8651 12.8018C86.1807 12.8018 83.4018 10.0229 83.4018 6.40092C83.4018 2.77894 86.2119 0 89.8651 0C93.5183 0 96.2661 2.74772 96.2661 6.40092C96.2661 10.0541 93.5183 12.8018 89.8651 12.8018ZM89.8651 11.7402C92.8939 11.7402 95.142 9.46088 95.142 6.40092C95.142 3.34097 92.8939 1.06162 89.8651 1.06162C86.8052 1.06162 84.5571 3.34097 84.5571 6.40092C84.5571 9.46088 86.8052 11.7402 89.8651 11.7402ZM88.4913 9.32037C88.4913 9.63939 88.2327 9.89802 87.9136 9.89802C87.5946 9.89802 87.336 9.63939 87.336 9.32037V3.26892C87.336 2.96382 87.5833 2.71649 87.8884 2.71649H90.1462C91.7074 2.71649 92.769 3.52831 92.769 4.90217C92.769 5.83889 92.2382 6.61949 91.2702 6.96296L92.4138 9.0707C92.6163 9.44396 92.3461 9.89802 91.9214 9.89802C91.713 9.89802 91.5219 9.78235 91.4252 9.59776L90.2086 7.2752H88.4913V9.32037ZM91.52 4.96462C91.52 4.18402 90.9892 3.80933 90.1149 3.80933H88.4913V6.18236H90.1149C90.9892 6.18236 91.52 5.74522 91.52 4.96462Z" fill="white"/>
</svg>
