<svg width="136" height="60" viewBox="0 0 136 60" fill="none" xmlns="http://www.w3.org/2000/svg">
<path d="M123.532 26.0684C124.752 26.0684 125.586 27.3002 125.132 28.4326L119.249 43.1172C118.727 44.4147 118.095 45.3425 117.299 45.9453C116.501 46.5492 115.547 46.8202 114.396 46.8203C113.925 46.8203 113.48 46.7924 113.06 46.7412C112.273 46.6456 111.748 45.9418 111.748 45.166C111.748 44.2216 112.514 43.4561 113.458 43.4561H113.892C114.558 43.4561 115.082 43.3791 115.509 43.1143C115.934 42.8505 116.281 42.3901 116.57 41.5898V41.5889L116.949 40.5879L112.268 28.4727C111.82 27.3145 112.674 26.0684 113.916 26.0684C114.665 26.0684 115.334 26.5404 115.583 27.2471L118.654 35.9551L121.917 27.1904C122.168 26.5156 122.812 26.0684 123.532 26.0684ZM93.793 26.0684C94.7914 26.0684 95.6006 26.8775 95.6006 27.876V38.3105C95.6006 39.2988 94.7997 40.0996 93.8115 40.0996C92.9168 40.0996 92.1591 39.4392 92.0381 38.5527L92.0195 38.4189C91.1084 39.6496 89.3789 40.4639 87.6045 40.4639C85.9851 40.4638 84.6896 39.9162 83.7998 38.9297C82.9112 37.9443 82.4366 36.532 82.4365 34.8203V27.876C82.4365 26.8774 83.2466 26.0684 84.2451 26.0684C85.2435 26.0685 86.0527 26.8775 86.0527 27.876V33.6162C86.0528 34.9217 86.3101 35.8178 86.7852 36.3867C87.2571 36.9517 87.9594 37.2119 88.8926 37.2119C89.9506 37.2119 90.7157 36.9032 91.2197 36.2891C91.727 35.6709 91.9844 34.7256 91.9844 33.4199V27.876C91.9844 26.8774 92.7944 26.0684 93.793 26.0684ZM77.7158 19.4316C78.7606 19.4318 79.6074 20.2794 79.6074 21.3242V38.208C79.6074 39.2528 78.7606 40.0995 77.7158 40.0996C76.6709 40.0996 75.8233 39.2529 75.8232 38.208V31.4199H66.9512V38.208C66.9512 39.2529 66.1045 40.0996 65.0596 40.0996C64.0147 40.0996 63.168 39.2529 63.168 38.208V21.3242C63.168 20.2793 64.0147 19.4316 65.0596 19.4316C66.1045 19.4316 66.9512 20.2793 66.9512 21.3242V27.8877H75.8232V21.3242C75.8232 20.2793 76.6709 19.4316 77.7158 19.4316ZM107.614 19.0684C108.605 19.0684 109.408 19.8715 109.408 20.8623V38.3057C109.408 39.2965 108.605 40.0996 107.614 40.0996C106.624 40.0994 105.82 39.2963 105.82 38.3057V29.124H102.993V38.292C102.993 39.2905 102.183 40.0996 101.185 40.0996C100.186 40.0994 99.377 39.2904 99.377 38.292V29.124H98.2451C97.4012 29.124 96.7168 28.4396 96.7168 27.5957C96.7169 26.7519 97.4013 26.0684 98.2451 26.0684H99.377V23.5645C99.377 22.5661 100.186 21.7561 101.185 21.7559C102.183 21.7559 102.993 22.5659 102.993 23.5645V26.0684H105.82V20.8623C105.82 19.8716 106.624 19.0686 107.614 19.0684Z" fill="white" stroke="black" stroke-width="0.2"/>
<rect x="39.8203" y="46.0391" width="31.2775" height="8.92857" rx="4.46429" transform="rotate(-120 39.8203 46.0391)" fill="white" fill-opacity="0.8"/>
<rect x="5" y="35.7734" width="50" height="8.92857" rx="4.46429" fill="white"/>
<path d="M30.5853 41.5751L30.5853 35.7737L27.2359 35.7737L30.5853 41.5751Z" fill="white" fill-opacity="0.95"/>
<path fill-rule="evenodd" clip-rule="evenodd" d="M10.7699 16.1823C8.63462 17.4151 7.90303 20.1454 9.13581 22.2806L22.0809 44.7023L25.1689 44.7023L30.5853 41.5751L27.2359 35.7737L16.8682 17.8164C15.6354 15.6811 12.9051 14.9495 10.7699 16.1823Z" fill="white" fill-opacity="0.95"/>
<path d="M30.5853 44.7023L30.5853 41.5751L25.1689 44.7023L30.5853 44.7023Z" fill="white" fill-opacity="0.95"/>
<path d="M130.877 26.66C128.097 26.66 126 24.5631 126 21.83C126 19.0969 128.12 17 130.877 17C133.634 17 135.707 19.0734 135.707 21.83C135.707 24.5866 133.634 26.66 130.877 26.66ZM130.877 25.8589C133.163 25.8589 134.859 24.139 134.859 21.83C134.859 19.521 133.163 17.8011 130.877 17.8011C128.568 17.8011 126.872 19.521 126.872 21.83C126.872 24.139 128.568 25.8589 130.877 25.8589ZM129.84 24.033C129.84 24.2737 129.645 24.4688 129.405 24.4688C129.164 24.4688 128.969 24.2737 128.969 24.033V19.4667C128.969 19.2364 129.155 19.0498 129.386 19.0498H131.089C132.267 19.0498 133.068 19.6624 133.068 20.6991C133.068 21.4059 132.668 21.9949 131.937 22.2541L132.8 23.8446C132.953 24.1262 132.749 24.4688 132.429 24.4688C132.272 24.4688 132.127 24.3816 132.054 24.2423L131.136 22.4897H129.84V24.033ZM132.126 20.7462C132.126 20.1572 131.725 19.8744 131.066 19.8744H129.84V21.6651H131.066C131.725 21.6651 132.126 21.3352 132.126 20.7462Z" fill="white"/>
</svg>
